<?xml version="1.0" encoding="UTF-8"?>
<svg xmlns="http://www.w3.org/2000/svg" width="160" height="160" viewBox="0 0 160 160">
  <title>Tactik Symbol — Light</title>
  <rect width="160" height="160" rx="28" fill="#E8F0E9"/>
  <g transform="translate(9, 3.5)">
    <polygon points="16,20 126,20 126,54 16,54" fill="#0FCC58" fill-opacity="0.13"/>
    <polygon points="62,54 80,54 80,132 62,132"  fill="#0FCC58" fill-opacity="0.13"/>
    <line x1="16"  y1="54"  x2="62"  y2="20"  stroke="#0FCC58" stroke-width="1.2" stroke-linecap="round" stroke-opacity="0.7"/>
    <line x1="126" y1="54"  x2="80"  y2="20"  stroke="#0FCC58" stroke-width="1.2" stroke-linecap="round" stroke-opacity="0.7"/>
    <line x1="62"  y1="132" x2="16"  y2="54"  stroke="#8BA898" stroke-width="1.2" stroke-linecap="round" stroke-opacity="0.8"/>
    <line x1="80"  y1="132" x2="126" y2="54"  stroke="#8BA898" stroke-width="1.2" stroke-linecap="round" stroke-opacity="0.8"/>
    <line x1="62"  y1="90"  x2="16"  y2="54"  stroke="#8BA898" stroke-width="1.2" stroke-linecap="round" stroke-opacity="0.8"/>
    <line x1="80"  y1="90"  x2="126" y2="54"  stroke="#8BA898" stroke-width="1.2" stroke-linecap="round" stroke-opacity="0.8"/>
    <line x1="16"  y1="20"  x2="126" y2="20"  stroke="#065C26" stroke-width="4" stroke-linecap="round"/>
    <line x1="16"  y1="54"  x2="126" y2="54"  stroke="#065C26" stroke-width="4" stroke-linecap="round"/>
    <line x1="16"  y1="20"  x2="16"  y2="54"  stroke="#065C26" stroke-width="4" stroke-linecap="round"/>
    <line x1="126" y1="20"  x2="126" y2="54"  stroke="#065C26" stroke-width="4" stroke-linecap="round"/>
    <line x1="62"  y1="54"  x2="62"  y2="132" stroke="#065C26" stroke-width="4" stroke-linecap="round"/>
    <line x1="80"  y1="54"  x2="80"  y2="132" stroke="#065C26" stroke-width="4" stroke-linecap="round"/>
    <line x1="62"  y1="132" x2="80"  y2="132" stroke="#065C26" stroke-width="4" stroke-linecap="round"/>
    <circle cx="16"  cy="20"  r="7" fill="#E8F0E9" stroke="#0FCC58" stroke-width="2.8"/>
    <circle cx="62"  cy="20"  r="7" fill="#E8F0E9" stroke="#0FCC58" stroke-width="2.8"/>
    <circle cx="80"  cy="20"  r="7" fill="#E8F0E9" stroke="#0FCC58" stroke-width="2.8"/>
    <circle cx="126" cy="20"  r="7" fill="#E8F0E9" stroke="#0FCC58" stroke-width="2.8"/>
    <circle cx="16"  cy="54"  r="7" fill="#E8F0E9" stroke="#0FCC58" stroke-width="2.8"/>
    <circle cx="62"  cy="54"  r="7" fill="#E8F0E9" stroke="#0FCC58" stroke-width="2.8"/>
    <circle cx="80"  cy="54"  r="7" fill="#E8F0E9" stroke="#0FCC58" stroke-width="2.8"/>
    <circle cx="126" cy="54"  r="7" fill="#E8F0E9" stroke="#0FCC58" stroke-width="2.8"/>
    <circle cx="62"  cy="90"  r="7" fill="#E8F0E9" stroke="#0FCC58" stroke-width="2.8"/>
    <circle cx="80"  cy="90"  r="7" fill="#E8F0E9" stroke="#0FCC58" stroke-width="2.8"/>
    <circle cx="62"  cy="132" r="8" fill="#0FCC58"/>
    <circle cx="80"  cy="132" r="8" fill="#0FCC58"/>
  </g>
</svg>
