<?xml version="1.0" encoding="UTF-8"?>
<svg xmlns="http://www.w3.org/2000/svg" width="160" height="160" viewBox="0 0 160 160">
  <title>Tactik Symbol — Dark</title>
  <rect width="160" height="160" rx="28" fill="#111518"/>
  <g transform="translate(9, 3.5)">
    <polygon points="16,20 126,20 126,54 16,54" fill="#003A1A" fill-opacity="0.92"/>
    <polygon points="62,54 80,54 80,132 62,132"  fill="#003A1A" fill-opacity="0.92"/>
    <line x1="16"  y1="54"  x2="62"  y2="20"  stroke="#8EFFC0" stroke-width="1.2" stroke-linecap="round" stroke-opacity="0.85"/>
    <line x1="126" y1="54"  x2="80"  y2="20"  stroke="#8EFFC0" stroke-width="1.2" stroke-linecap="round" stroke-opacity="0.85"/>
    <line x1="62"  y1="132" x2="16"  y2="54"  stroke="#4A5E52" stroke-width="1.2" stroke-linecap="round" stroke-opacity="0.9"/>
    <line x1="80"  y1="132" x2="126" y2="54"  stroke="#4A5E52" stroke-width="1.2" stroke-linecap="round" stroke-opacity="0.9"/>
    <line x1="62"  y1="90"  x2="16"  y2="54"  stroke="#4A5E52" stroke-width="1.2" stroke-linecap="round" stroke-opacity="0.9"/>
    <line x1="80"  y1="90"  x2="126" y2="54"  stroke="#4A5E52" stroke-width="1.2" stroke-linecap="round" stroke-opacity="0.9"/>
    <line x1="16"  y1="20"  x2="126" y2="20"  stroke="#16FF6E" stroke-width="4" stroke-linecap="round"/>
    <line x1="16"  y1="54"  x2="126" y2="54"  stroke="#16FF6E" stroke-width="4" stroke-linecap="round"/>
    <line x1="16"  y1="20"  x2="16"  y2="54"  stroke="#16FF6E" stroke-width="4" stroke-linecap="round"/>
    <line x1="126" y1="20"  x2="126" y2="54"  stroke="#16FF6E" stroke-width="4" stroke-linecap="round"/>
    <line x1="62"  y1="54"  x2="62"  y2="132" stroke="#16FF6E" stroke-width="4" stroke-linecap="round"/>
    <line x1="80"  y1="54"  x2="80"  y2="132" stroke="#16FF6E" stroke-width="4" stroke-linecap="round"/>
    <line x1="62"  y1="132" x2="80"  y2="132" stroke="#16FF6E" stroke-width="4" stroke-linecap="round"/>
    <circle cx="16"  cy="20"  r="7" fill="#111518" stroke="#16FF6E" stroke-width="2.8"/>
    <circle cx="62"  cy="20"  r="7" fill="#111518" stroke="#16FF6E" stroke-width="2.8"/>
    <circle cx="80"  cy="20"  r="7" fill="#111518" stroke="#16FF6E" stroke-width="2.8"/>
    <circle cx="126" cy="20"  r="7" fill="#111518" stroke="#16FF6E" stroke-width="2.8"/>
    <circle cx="16"  cy="54"  r="7" fill="#111518" stroke="#16FF6E" stroke-width="2.8"/>
    <circle cx="62"  cy="54"  r="7" fill="#111518" stroke="#16FF6E" stroke-width="2.8"/>
    <circle cx="80"  cy="54"  r="7" fill="#111518" stroke="#16FF6E" stroke-width="2.8"/>
    <circle cx="126" cy="54"  r="7" fill="#111518" stroke="#16FF6E" stroke-width="2.8"/>
    <circle cx="62"  cy="90"  r="7" fill="#111518" stroke="#16FF6E" stroke-width="2.8"/>
    <circle cx="80"  cy="90"  r="7" fill="#111518" stroke="#16FF6E" stroke-width="2.8"/>
    <circle cx="62"  cy="132" r="8" fill="#16FF6E"/>
    <circle cx="80"  cy="132" r="8" fill="#16FF6E"/>
  </g>
</svg>
